<?xml version="1.0" encoding="UTF-8"?>
<!DOCTYPE svg PUBLIC "-//W3C//DTD SVG 1.1//EN" "http://www.w3.org/Graphics/SVG/1.1/DTD/svg11.dtd">
<!-- Creator: CorelDRAW 2017 -->
<svg xmlns="http://www.w3.org/2000/svg" xml:space="preserve" width="0.566661in" height="0.333331in" version="1.1" style="shape-rendering:geometricPrecision; text-rendering:geometricPrecision; image-rendering:optimizeQuality; fill-rule:evenodd; clip-rule:evenodd"
viewBox="0 0 566.66 333.33"
 xmlns:xlink="http://www.w3.org/1999/xlink">
 <defs>
  <style type="text/css">
   <![CDATA[
    .str0 {stroke:#FEFEFE;stroke-width:3;stroke-linecap:round;stroke-miterlimit:2.61313}
    .fil1 {fill:none}
    .fil0 {fill:#FEFEFE}
   ]]>
  </style>
 </defs>
 <g id="Layer_x0020_1">
  <metadata id="CorelCorpID_0Corel-Layer"/>
  <g id="_1495953235168">
   <g>
    <path class="fil0" d="M217.05 280.99c2.26,-8 5.78,-14.21 10.55,-18.62 4.77,-4.41 9.1,-6.07 12.96,-4.98 1.12,0.32 2.02,1.08 2.7,2.3 0.68,1.22 0.81,2.56 0.4,4.01 -0.37,1.3 -1.22,2.58 -2.56,3.88 -1.34,1.3 -2.72,2.48 -4.14,3.57 -1.43,1.09 -2.89,2.63 -4.37,4.62 -1.49,2 -2.59,4.24 -3.29,6.73 -0.95,3.35 -0.39,5.32 1.67,5.9 1.46,0.42 2.87,-0.11 4.22,-1.59 1.34,-1.47 2.96,-3.73 4.84,-6.78 1.88,-3.05 3.5,-5.31 4.83,-6.78 1.94,-2.58 3.8,-4.74 5.58,-6.48l-13.37 51.45c-2.5,0.44 -5.24,0.24 -8.21,-0.59 -6.02,-1.7 -10.14,-5.94 -12.35,-12.74 -2.22,-6.81 -2.04,-14.77 0.54,-23.89zm49.46 -19.76c0.85,0.15 1.72,0.35 2.62,0.6 2.32,0.65 4.44,1.96 6.35,3.88 1.92,1.94 3.53,4.48 4.82,7.64 1.29,3.14 1.93,7.11 1.93,11.9 0,4.78 -0.81,10.01 -2.41,15.69 -3.14,11.1 -8.02,18.69 -14.65,22.76 -3.24,1.96 -6.2,2.57 -8.87,1.81 -1.63,-0.46 -2.77,-1.36 -3.42,-2.7 -0.64,-1.34 -0.69,-3.01 -0.13,-4.98 0.56,-1.98 2.37,-4.72 5.46,-8.21 3.07,-3.5 5.1,-6.97 6.07,-10.41 1.33,-4.74 0.84,-7.43 -1.48,-8.09 -1.2,-0.33 -2.52,0.64 -3.95,2.93l-1.52 2.46 9.17 -35.28z"/>
    <path class="fil0" d="M298.72 233.54c-1.92,6.8 -6.29,11.65 -13.1,14.56 -4.72,2.02 -10.12,2.69 -16.21,1.99l7.41 -28.49c1.07,0.01 2.13,-0.04 3.17,-0.17 3.46,-0.41 5.52,-1.79 6.18,-4.11 0.68,-2.41 0.06,-4.67 -1.85,-6.79l-4.3 -1.22 7.25 -27.91 9.65 2.72c5.17,1.46 8.44,3.55 9.86,6.26 1.42,2.72 1.36,6.79 -0.17,12.21 -1.6,5.69 -4.25,8.97 -7.94,9.88 2.15,6.55 2.17,13.57 0.06,21.05zm-43.04 13.1c-7.15,-2.75 -12.58,-6.59 -16.28,-11.52 -4.56,-6.07 -5.86,-12.54 -3.92,-19.43 1.97,-6.97 6.24,-12.73 12.81,-17.28 -3.64,-3.54 -4.74,-7.89 -3.28,-13.05 1.31,-4.65 3.34,-7.97 6.09,-9.98 2.75,-2.01 6.83,-2.25 12.25,-0.72l10.28 2.9 -7.25 27.91 -6.21 -1.75c-2.9,0.76 -4.69,2.29 -5.34,4.62 -0.63,2.24 0.5,4.5 3.37,6.8 1.45,1.16 3.07,2.18 4.86,3.06l-7.39 28.44z"/>
    <path class="fil0" d="M296.54 89.43c-1.85,0.5 -3.1,1.86 -3.73,4.09 -0.45,1.59 0.06,3.06 1.52,4.4l-7.31 28.13c-2.34,0.28 -3.87,1.7 -4.59,4.25 -0.43,1.55 0.09,3.07 1.57,4.55l0.59 0.55 -7.55 29.05 -9.61 -2.71c-4.39,-1.24 -7.59,-3.42 -9.58,-6.54 -2,-3.11 -2.44,-6.66 -1.33,-10.61 1.99,-7.05 5.54,-10.88 10.63,-11.49 -1.48,-3.95 -2.26,-7.63 -2.32,-11.04 -0.06,-3.41 0.51,-7.22 1.7,-11.43 1.8,-6.37 5.85,-10.19 12.16,-11.48 -0.22,-0.52 -0.44,-1.05 -0.67,-1.58 -2.94,-7.98 -3.06,-16.8 -0.34,-26.43 1.72,-6.11 5.28,-9.85 10.69,-11.2 3.84,-0.96 9.08,-0.8 15.72,0.48l-7.54 29.02zm11.02 13.86c2.08,0.62 3.93,1.2 5.55,1.74 2.98,0.98 5.61,2.02 7.9,3.13 2.28,1.11 4.03,2.16 5.24,3.15 1.2,1 2.11,2.13 2.73,3.42 0.61,1.3 0.89,2.62 0.82,4 -0.06,1.37 -0.37,3.05 -0.93,5.03 -0.85,3.01 -1.97,5.32 -3.35,6.93 -1.39,1.6 -2.96,2.57 -4.73,2.91 -1.76,0.34 -3.81,0.18 -6.13,-0.48l-13.83 -3.91 6.73 -25.92zm-9.64 37.09l10.5 2.96c5.17,1.46 8.44,3.54 9.86,6.26 1.42,2.72 1.36,6.8 -0.17,12.22 -1.43,5.07 -3.59,8.2 -6.48,9.39 -2.89,1.18 -7.05,1.01 -12.47,-0.53l-8.5 -2.4 7.25 -27.91zm19.87 -76.44c2.42,0.72 4.54,1.38 6.35,1.98 2.98,0.98 5.61,2.02 7.9,3.14 2.28,1.1 4.02,2.17 5.22,3.21 1.19,1.03 2.08,2.26 2.66,3.67 0.57,1.42 0.81,2.88 0.71,4.38 -0.1,1.51 -0.45,3.33 -1.06,5.48 -0.92,3.27 -2.09,5.8 -3.52,7.57 -1.44,1.78 -3.05,2.88 -4.84,3.31 -1.79,0.42 -3.84,0.31 -6.17,-0.35l-14.6 -4.12 7.35 -28.28z"/>
    <path class="fil0" d="M267.5 37.05c-2.84,-0.81 -4.84,-2.69 -5.99,-5.67 -1.16,-2.98 -1.11,-6.7 0.15,-11.18 2.65,-9.37 7.24,-13.14 13.78,-11.3 3.61,1.02 5.82,2.93 6.62,5.7 0.79,2.78 0.54,6.49 -0.78,11.14 -1.14,4.05 -2.87,7.18 -5.16,9.41 -2.31,2.23 -5.18,2.85 -8.62,1.89zm73.59 -9.46c5.16,1.45 8.45,3.54 9.86,6.27 1.42,2.72 1.36,6.79 -0.17,12.21 -1.44,5.08 -3.59,8.21 -6.48,9.39 -2.89,1.18 -7.05,1 -12.46,-0.53l-10.91 -3.08 7.25 -27.9 12.91 3.64zm-33.79 20.41l-7.21 -2.04c-4.39,-1.23 -7.58,-3.41 -9.58,-6.53 -2,-3.11 -2.44,-6.65 -1.33,-10.61 1.31,-4.64 3.34,-7.97 6.09,-9.98 2.76,-2.01 6.84,-2.25 12.26,-0.72l7.02 1.98 -7.26 27.91z"/>
   </g>
   <g>
    <g>
     <polygon class="fil1 str0" points="32.88,165.6 32.88,151.59 195.67,82.6 195.67,112.95 67.39,165.6 "/>
     <polygon class="fil0 str0" points="32.88,167.73 32.88,181.74 195.67,250.73 195.67,220.38 67.39,167.73 "/>
    </g>
    <g>
     <polygon class="fil1 str0" points="533.78,167.73 533.78,181.74 370.99,250.73 370.99,220.38 499.27,167.73 "/>
     <polygon class="fil0 str0" points="533.78,165.6 533.78,151.59 370.99,82.6 370.99,112.95 499.27,165.6 "/>
    </g>
   </g>
  </g>
 </g>
</svg>
